<?xml version="1.0" encoding="utf-8"?>
<!-- Generator: Adobe Illustrator 25.0.0, SVG Export Plug-In . SVG Version: 6.00 Build 0)  -->
<svg version="1.1" id="Layer_1" xmlns="http://www.w3.org/2000/svg" xmlns:xlink="http://www.w3.org/1999/xlink" x="0px" y="0px"
	 viewBox="0 0 300 300" style="enable-background:new 0 0 300 300;" xml:space="preserve">
<style type="text/css">
	.st0{fill:#322C79;}
	.st1{fill:#1B1A3D;}
	.st2{fill:#FFFFFF;}
	.st3{display:none;fill:#2D2E68;}
	.st4{display:none;fill:#37C6F4;}
	.st5{display:none;fill:none;stroke:#37C6F4;stroke-width:4;stroke-miterlimit:10;}
</style>
<path class="st0" d="M300,150c0,65.31-41.74,120.88-100,141.45C184.36,297,167.54,300,150,300C67.16,300,0,232.84,0,150
	C0,67.16,67.16,0,150,0c68.7,0,126.61,46.18,144.37,109.19l0.01,0.01C298.04,122.18,300,135.85,300,150z"/>
<path class="st1" d="M300,150c0,65.31-41.74,120.88-100,141.45L99.15,228.5l-3.39-2.1c-0.05-0.03-0.11-0.07-0.16-0.11L73.57,150
	l17.7-26.65l31.41-27.69l26.32-4.73l23.74-4.26l77.5-13.92c0.86-0.15,1.39-0.24,1.61-0.28c0.07-0.01,0.11-0.03,0.11-0.03
	l42.41,36.75l0.01,0.01C298.04,122.18,300,135.85,300,150z"/>
<circle class="st2" cx="139.66" cy="159.52" r="79.99"/>
<path class="st2" d="M169.42,123.35h20.7c29.4,0,61.84-50.91,61.84-50.91s-36.63,7.08-110.14,7.08L169.42,123.35z"/>
<path class="st2" d="M141.82,79.53L141.82,79.53z"/>
<ellipse class="st1" cx="140.73" cy="158.75" rx="39.03" ry="42.95"/>
<path class="st3" d="M151.62,131.9h-45.51h0c6.74-9.01,18.97-14.54,32.19-14.54h13.32"/>
<ellipse class="st4" cx="150" cy="151.18" rx="20.47" ry="25.15"/>
<polyline class="st4" points="150,126.03 117.3,126.03 124.57,138.28 134.36,138.28 "/>
<ellipse class="st3" cx="152" cy="152.18" rx="30.95" ry="39.26"/>
<path class="st3" d="M151.23,127.22h-44.29l0,0c7.62-8.87,21.44-14.31,36.38-14.31H152"/>
<path class="st1" d="M140.73,115.8C94.11,112.19,79.2,150,79.2,150s25.03-9.42,75.26-9.42L140.73,115.8z"/>
<path class="st2" d="M211.22,300L211.22,300z"/>
<line class="st5" x1="152.23" y1="126.03" x2="122.2" y2="126.03"/>
</svg>
