<?xml version="1.0" encoding="UTF-8"?>
<svg xmlns="http://www.w3.org/2000/svg" xmlns:xlink="http://www.w3.org/1999/xlink" viewBox="0 0 48 48" width="48px" height="48px">
<g id="surface83292274">
<path style=" stroke:none;fill-rule:nonzero;fill:rgb(100%,100%,100%);fill-opacity:1;" d="M 8.5 8 C 6.03125 8 4 10.03125 4 12.5 L 4 35.5 C 4 37.96875 6.03125 40 8.5 40 L 39.5 40 C 41.96875 40 44 37.96875 44 35.5 L 44 17.5 C 44 15.03125 41.96875 13 39.5 13 L 24.042969 13 L 19.570312 9.277344 C 18.585938 8.453125 17.339844 8 16.050781 8 Z M 8.5 11 L 16.050781 11 C 16.636719 11 17.203125 11.207031 17.652344 11.582031 L 21.15625 14.5 L 17.652344 17.417969 C 17.203125 17.792969 16.636719 18 16.050781 18 L 7 18 L 7 12.5 C 7 11.652344 7.652344 11 8.5 11 Z M 24.042969 16 L 39.5 16 C 40.347656 16 41 16.652344 41 17.5 L 41 35.5 C 41 36.347656 40.347656 37 39.5 37 L 8.5 37 C 7.652344 37 7 36.347656 7 35.5 L 7 21 L 16.050781 21 C 17.339844 21 18.585938 20.546875 19.570312 19.722656 Z M 24.042969 16 "/>
</g>
</svg>
