<?xml version="1.0" encoding="UTF-8"?>
<svg xmlns="http://www.w3.org/2000/svg" xmlns:xlink="http://www.w3.org/1999/xlink" viewBox="0 0 48 48" width="48px" height="48px">
<g id="surface83281986">
<path style=" stroke:none;fill-rule:nonzero;fill:rgb(100%,100%,100%);fill-opacity:1;" d="M 8.5 8 C 6.03125 8 4 10.03125 4 12.5 L 4 36.40625 L 4.015625 36.40625 C 3.988281 38.277344 5.507812 40 7.503906 40 L 36.546875 40 C 38.417969 40 40.101562 38.832031 40.761719 37.082031 L 45.769531 23.75 L 45.769531 23.746094 C 46.625 21.5 44.902344 19 42.5 19 L 42 19 L 42 17.5 C 42 15.03125 39.96875 13 37.5 13 L 24.042969 13 L 19.574219 9.273438 C 19.574219 9.273438 19.574219 9.273438 19.570312 9.273438 C 18.585938 8.453125 17.339844 8 16.050781 8 Z M 8.5 11 L 16.050781 11 C 16.636719 11 17.203125 11.207031 17.652344 11.582031 L 22.539062 15.652344 C 22.808594 15.878906 23.148438 16 23.5 16 L 37.5 16 C 38.347656 16 39 16.652344 39 17.5 L 39 19 L 13.453125 19 C 11.582031 19 9.898438 20.167969 9.242188 21.917969 L 7 27.882812 L 7 12.5 C 7 11.652344 7.652344 11 8.5 11 Z M 13.453125 22 L 42.5 22 C 42.898438 22 43.109375 22.304688 42.964844 22.675781 C 42.964844 22.679688 42.960938 22.683594 42.960938 22.6875 L 37.953125 36.027344 C 37.730469 36.617188 37.175781 37 36.546875 37 L 7.503906 37 C 7.105469 37 6.894531 36.695312 7.03125 36.324219 C 7.035156 36.324219 7.035156 36.324219 7.035156 36.324219 L 12.050781 22.972656 C 12.269531 22.382812 12.824219 22 13.453125 22 Z M 13.453125 22 "/>
</g>
</svg>
